<?xml version="1.0" standalone="no"?>
<!DOCTYPE svg PUBLIC "-//W3C//DTD SVG 20010904//EN"
 "http://www.w3.org/TR/2001/REC-SVG-20010904/DTD/svg10.dtd">
<svg version="1.0" xmlns="http://www.w3.org/2000/svg"
 width="228.000000pt" height="228.000000pt" viewBox="0 0 228.000000 228.000000"
 preserveAspectRatio="xMidYMid meet">
<metadata>
Created by potrace 1.14, written by Peter Selinger 2001-2017
</metadata>
<g transform="translate(0.000000,228.000000) scale(0.100000,-0.100000)"
fill="#000000" stroke="none">
<path d="M410 1982 c-60 -9 -57 37 -57 -770 0 -405 2 -730 5 -722 30 98 103
179 185 204 9 3 17 13 18 23 0 10 1 174 2 364 2 326 3 348 21 368 40 44 54 33
294 -205 125 -124 237 -230 249 -235 13 -4 29 -6 37 -3 7 3 117 108 244 235
245 243 258 252 299 207 20 -22 20 -33 20 -451 l0 -429 -25 -9 c-53 -20 -54
-14 -56 377 -1 347 -2 357 -21 364 -17 7 -58 -30 -247 -218 -205 -203 -229
-224 -244 -211 -10 8 -111 107 -226 222 -159 158 -214 207 -233 207 -14 0 -26
-3 -26 -7 -1 -5 -3 -152 -4 -328 -1 -176 -3 -323 -4 -327 0 -4 -8 -5 -16 -2
-30 12 -109 -25 -145 -67 -44 -52 -58 -91 -54 -155 6 -122 92 -204 211 -204
99 1 163 40 203 125 16 35 19 67 20 239 0 110 3 203 6 208 14 22 49 -1 153
-106 77 -78 120 -113 132 -111 10 2 68 54 129 114 109 109 131 124 147 99 4
-7 8 -98 9 -203 2 -231 0 -212 25 -225 22 -12 423 -15 453 -4 9 3 19 18 23 31
6 27 7 1535 0 1566 -5 25 -25 37 -62 37 -26 0 -73 -43 -360 -331 -181 -182
-339 -334 -350 -338 -11 -5 -29 -4 -40 2 -11 5 -166 154 -344 331 -178 177
-328 326 -335 331 -6 6 -22 9 -36 7z"/>
</g>
</svg>
